<svg width="400" height="400" viewBox="0 0 400 400" fill="none" xmlns="http://www.w3.org/2000/svg">
  <circle cx="200" cy="200" r="200" fill="url(#paint0_linear_1_2)"/>
  <path d="M200 400C310.457 400 400 310.457 400 200C400 89.5431 310.457 0 200 0C89.5431 0 0 89.5431 0 200C0 310.457 89.5431 400 200 400Z" fill="#2E7D32"/>
  <path d="M200 350C281.539 350 348 283.539 348 202C348 120.461 281.539 54 200 54C118.461 54 52 120.461 52 202C52 283.539 118.461 350 200 350Z" fill="#4CAF50"/>
  <path d="M200 300C245.228 300 282 263.228 282 218C282 172.772 245.228 136 200 136C154.772 136 118 172.772 118 218C118 263.228 154.772 300 200 300Z" fill="#81C784"/>
  <path d="M200 250C209.941 250 218 241.941 218 232C218 222.059 209.941 214 200 214C190.059 214 182 222.059 182 232C182 241.941 190.059 250 200 250Z" fill="#FFEB3B"/>
  <defs>
    <linearGradient id="paint0_linear_1_2" x1="200" y1="0" x2="200" y2="400" gradientUnits="userSpaceOnUse">
      <stop stop-color="#2E7D32"/>
      <stop offset="1" stop-color="#81C784"/>
    </linearGradient>
  </defs>
</svg>
